<?xml version="1.0" encoding="UTF-8" standalone="no"?>
<svg width="26px" height="26px" viewBox="0 0 26 26" version="1.1" xmlns="http://www.w3.org/2000/svg" xmlns:xlink="http://www.w3.org/1999/xlink" xmlns:sketch="http://www.bohemiancoding.com/sketch/ns">
    <title>Layers</title>
    <description>Created with Sketch (http://www.bohemiancoding.com/sketch)</description>
    <defs></defs>
    <g id="Page-1" stroke="none" stroke-width="1" fill="none" fill-rule="evenodd" sketch:type="MSPage">
        <g id="Rectangle-142-copy-+-Rectangle-142-copy-3-+-Rectangle-142-copy-3" sketch:type="MSLayerGroup" transform="translate(3.000000, 5.000000)">
            <path d="M17,9.5 L20,11 L10,16 L0,11 L3,9.5 L4.5,10.25 L3,11 L10,14.5 L17,11 L15.5,10.25 L17,9.5 Z M17,9.5" id="Rectangle-142-copy" fill="#333333" sketch:type="MSShapeGroup"></path>
            <path d="M17,6.5 L20,8 L10,13 L0,8 L3,6.5 L4.5,7.25 L3,8 L10,11.5 L17,8 L15.5,7.25 L17,6.5 Z M17,6.5" id="Rectangle-142-copy-3" fill="#4C4C4C" sketch:type="MSShapeGroup"></path>
            <path d="M10,10 L20,5 L10,-9.90103346e-17 L0,5 L10,10 Z M10,8.5 L17,5 L10,1.5 L3,5 L10,8.5 Z M10,8.5" id="Rectangle-142-copy-3" fill="#666666" sketch:type="MSShapeGroup"></path>
        </g>
    </g>
</svg>