<svg width="26" height="26" xmlns="http://www.w3.org/2000/svg"><g fill="#6B6B6B"><path d="M10 14h4.508c1.929 0 3.492-1.571 3.492-3.5 0-1.933-1.566-3.5-3.492-3.5h-4.508v2h4.504c.816 0 1.496.672 1.496 1.5 0 .834-.67 1.5-1.496 1.5h-4.504v2zm0 0"/><path d="M15 12h-4.508c-1.929 0-3.492 1.571-3.492 3.5 0 1.933 1.566 3.5 3.492 3.5h4.508v-2h-4.504c-.816 0-1.496-.672-1.496-1.5 0-.834.67-1.5 1.496-1.5h4.504v-2zm0 0"/><path d="M19 20c1.105 0 2-.895 2-2s-.895-2-2-2-2 .895-2 2 .895 2 2 2zm0-1c.552 0 1-.448 1-1s-.448-1-1-1-1 .448-1 1 .448 1 1 1zm0 0"/><path d="M9 10c1.105 0 2-.895 2-2s-.895-2-2-2-2 .895-2 2 .895 2 2 2zm0-1c.552 0 1-.448 1-1s-.448-1-1-1-1 .448-1 1 .448 1 1 1zm0 0"/><path d="M13.568 20.808l2.828-2.828-.707-.707-2.828 2.828.707.707zm1.414-2.828l.707-.707-2.121-2.121-.707.707 2.121 2.121zm0 0"/></g></svg>