<?xml version="1.0" encoding="UTF-8" standalone="no"?>
<svg width="26px" height="26px" viewBox="0 0 26 26" version="1.1" xmlns="http://www.w3.org/2000/svg" xmlns:xlink="http://www.w3.org/1999/xlink" xmlns:sketch="http://www.bohemiancoding.com/sketch/ns">
    <title>Ruller</title>
    <description>Created with Sketch (http://www.bohemiancoding.com/sketch)</description>
    <defs></defs>
    <g id="Page-1" stroke="none" stroke-width="1" fill="none" fill-rule="evenodd" sketch:type="MSPage">
        <g id="Group" sketch:type="MSLayerGroup" transform="translate(3.000000, 10.000000)" fill="#666666">
            <rect d="M3,1 L3,4 L4,4 L4,1 L3,1 Z M3,1" id="Rectangle-210" sketch:type="MSShapeGroup" x="3" y="1" width="1" height="3"></rect>
            <rect d="M6,1 L6,4 L7,4 L7,1 L6,1 Z M6,1" id="Rectangle-210-copy" sketch:type="MSShapeGroup" x="6" y="1" width="1" height="3"></rect>
            <rect d="M9,1 L9,4 L10,4 L10,1 L9,1 Z M9,1" id="Rectangle-210-copy-2" sketch:type="MSShapeGroup" x="9" y="1" width="1" height="3"></rect>
            <rect d="M12,1 L12,4 L13,4 L13,1 L12,1 Z M12,1" id="Rectangle-210-copy-3" sketch:type="MSShapeGroup" x="12" y="1" width="1" height="3"></rect>
            <rect d="M15,2 L15,4 L17,4 L17,2 L15,2 Z M15,2" id="Rectangle-214" sketch:type="MSShapeGroup" x="15" y="2" width="2" height="2"></rect>
            <path d="M0,7 L20,7 L20,0 L0,0 L0,7 Z M1,1 L1,6 L19,6 L19,1 L1,1 Z M1,1" id="Rectangle-209" sketch:type="MSShapeGroup"></path>
        </g>
    </g>
</svg>