<?xml version="1.0" encoding="UTF-8" standalone="no"?>
<svg width="26px" height="26px" viewBox="0 0 26 26" version="1.1" xmlns="http://www.w3.org/2000/svg" xmlns:xlink="http://www.w3.org/1999/xlink" xmlns:sketch="http://www.bohemiancoding.com/sketch/ns">
    <title>Loupe</title>
    <description>Created with Sketch (http://www.bohemiancoding.com/sketch)</description>
    <defs></defs>
    <g id="Page-1" stroke="none" stroke-width="1" fill="none" fill-rule="evenodd" sketch:type="MSPage">
        <g id="Oval-11-+-Rectangle-128" sketch:type="MSLayerGroup" transform="translate(13.500000, 13.500000) rotate(-45.000000) translate(-13.500000, -13.500000) translate(7.000000, 4.000000)" fill="#666666">
            <path d="M6,12 C9.31370866,12 12,9.31370866 12,6 C12,2.68629134 9.31370866,4.26325641e-14 6,4.26325641e-14 C2.68629134,4.26325641e-14 0,2.68629134 0,6 C0,9.31370866 2.68629134,12 6,12 Z M6,9.5 C7.93299672,9.5 9.5,7.93299672 9.5,6 C9.5,4.06700328 7.93299672,2.5 6,2.5 C4.06700328,2.5 2.5,4.06700328 2.5,6 C2.5,7.93299672 4.06700328,9.5 6,9.5 Z M6,9.5" id="Oval-11" sketch:type="MSShapeGroup"></path>
            <rect d="M4.5,11 L4.5,18 L7.5,18 L7.5,11 L4.5,11 Z M4.5,11" id="Rectangle-128" sketch:type="MSShapeGroup" x="4.5" y="11" width="3" height="7"></rect>
        </g>
    </g>
</svg>